<?xml version="1.0" encoding="utf-8"?>
<!-- Generator: Adobe Illustrator 27.5.0, SVG Export Plug-In . SVG Version: 6.00 Build 0)  -->
<svg version="1.1" xmlns="http://www.w3.org/2000/svg" xmlns:xlink="http://www.w3.org/1999/xlink" x="0px" y="0px"
	 viewBox="0 0 1024 1024" style="enable-background:new 0 0 1024 1024;" xml:space="preserve">
<style type="text/css">
	.st0{fill:#2855B6;stroke:#FFFFFF;stroke-width:2.8346;stroke-miterlimit:10;}
	.st1{fill:#2855B6;stroke:#FFFFFF;stroke-miterlimit:10;}
	.st2{fill:#2855B6;}
	.st3{fill:#2855B6;stroke:#FFFFFF;stroke-width:5.6693;stroke-miterlimit:10;}
	.st4{fill:none;stroke:#2855B6;stroke-width:11.3386;stroke-miterlimit:10;}
	.st5{fill:none;stroke:#2855B6;stroke-width:11.3386;stroke-linecap:round;stroke-linejoin:round;stroke-miterlimit:10;}
	.st6{fill:#FFFFFF;stroke:#2855B6;stroke-width:11.3386;stroke-miterlimit:10;}
</style>
<g id="レイヤー_4">
</g>
<g id="レイヤー_5">
</g>
<g id="レイヤー_3">
	<path class="st4" d="M646.5,191.5c37.37,12.75,96.24,25.19,129.97,28.76c76.07,8.05,134.03,71.78,134.03,148.28v635.96h-824V359.69
		c0-73.32,56.59-134.21,129.71-139.6c46.58-3.43,108-14.54,130.29-24.59"/>
	<path class="st5" d="M512.5,796.5c-82.12-160.92-178.93-595-178.93-595l-89.07,76l111,174l-50,97c0,0,48,45,83,98
		S512.5,796.5,512.5,796.5z"/>
	<path class="st5" d="M496.5,761.5c63.06-86.16,159.86-560,159.86-560"/>
	<path class="st5" d="M496.5,761.5c0,0,88-87,108.88-115.42s83-98,83-98l-50-97l111-174L656.5,197.5"/>
	<path class="st6" d="M448.5,141.5l-131,36l44,96c0,0,73.45-67,91.22-66s24.78,5,24.78,5L448.5,141.5z"/>
	<path class="st6" d="M547.94,141.85l131,36l-44,96c0,0-73.45-67-91.22-66s-24.78,5-24.78,5L547.94,141.85z"/>
</g>
</svg>
