<?xml version="1.0" encoding="utf-8"?>
<!-- Generator: Adobe Illustrator 27.5.0, SVG Export Plug-In . SVG Version: 6.00 Build 0)  -->
<svg version="1.1" xmlns="http://www.w3.org/2000/svg" xmlns:xlink="http://www.w3.org/1999/xlink" x="0px" y="0px"
	 viewBox="0 0 1024 1024" style="enable-background:new 0 0 1024 1024;" xml:space="preserve">
<style type="text/css">
	.st0{fill:#2855B6;stroke:#FFFFFF;stroke-width:2.8346;stroke-miterlimit:10;}
	.st1{fill:#2855B6;stroke:#FFFFFF;stroke-miterlimit:10;}
	.st2{fill:#2855B6;}
	.st3{fill:#2855B6;stroke:#FFFFFF;stroke-width:5.6693;stroke-miterlimit:10;}
	.st4{fill:none;stroke:#2855B6;stroke-width:11.3386;stroke-miterlimit:10;}
	.st5{fill:none;stroke:#2855B6;stroke-width:11.3386;stroke-linecap:round;stroke-linejoin:round;stroke-miterlimit:10;}
	.st6{fill:#FFFFFF;stroke:#2855B6;stroke-width:11.3386;stroke-miterlimit:10;}
</style>
<g id="レイヤー_2">
	<polygon class="st0" points="531.34,244.62 552.5,197.5 559.5,180.5 588.5,206.5 581.5,216.5 554.5,253.5 547.5,261.5 528.5,252.5 
			"/>
	<line class="st1" x1="441.5" y1="195.5" x2="463.5" y2="244.5"/>
	<line class="st1" x1="413.5" y1="216.5" x2="440.5" y2="253.5"/>
	<polygon class="st2" points="568.26,573.85 531.5,380.5 531.34,361.5 465.5,361.5 461.5,382.5 428.72,567.74 460.82,668.36 
		489.73,746.14 496.5,758.29 505.87,746.38 	"/>
	<path class="st0" d="M463.5,244.5l-23.7-53.15c0,0-2.3-0.85-15.3,7.17c-13,8.02-14.06,13.82-14.06,13.82l32.06,44.16l21-10.02
		V244.5z"/>
	<path class="st3" d="M424.5,269.5c0,0,24.24-30,72-30s71.76,30,71.76,30l-24.76,111h-94L424.5,269.5z"/>
</g>
</svg>
